# xmcd
#
# Track frame offsets:
# 150
# 18299
# 32291
# 48488
# 69322
# 84522
# 102380
# 128656
# 153793
# 171046
# 186001
# 201603
# 215223
# 230074
# 247481
#
# Disc length: 3599 seconds
#
#
# Revision: 0
# Processed by: cddbd v1.5.2PL0 Copyright (c) Steve Scherf et al.
# Submitted via: FreeRIP 2.96 
#
DISCID=d10e0d0f
DTITLE=H.T. Roberts - Acres of Time
DYEAR=2005
DGENRE=
TTITLE0=The Wonder
TTITLE1=Saints and Outlaws
TTITLE2=Lou-Ellen
TTITLE3=Acres of Time
TTITLE4=Chilly Autumn Daybreak
TTITLE5=The Road to Damascus
TTITLE6=The Old Pilgrim Trail
TTITLE7=Ohio bridge
TTITLE8=Buddha in the Brambles
TTITLE9=In the Ghetto
TTITLE10=Among these Hills (waiting for you)
TTITLE11=Porchlight
TTITLE12=Talking Tree for X-mas
TTITLE13=To Midnight
TTITLE14=Ghost
EXTD=
EXTT0=
EXTT1=
EXTT2=
EXTT3=
EXTT4=
EXTT5=
EXTT6=
EXTT7=
EXTT8=
EXTT9=
EXTT10=
EXTT11=
EXTT12=
EXTT13=
EXTT14=
PLAYORDER=
